<svg width="135" height="37" viewBox="0 0 135 37" fill="none" xmlns="http://www.w3.org/2000/svg">
<g id="Logo">
<g clip-path="url(#clip0)">
<path id="Square" d="M53.9205 28.168C52.7525 28.168 51.6965 27.968 50.7525 27.568C49.8245 27.168 49.0885 26.592 48.5445 25.84C48.0005 25.088 47.7205 24.2 47.7045 23.176H51.3045C51.3525 23.864 51.5925 24.408 52.0245 24.808C52.4725 25.208 53.0805 25.408 53.8485 25.408C54.6325 25.408 55.2485 25.224 55.6965 24.856C56.1445 24.472 56.3685 23.976 56.3685 23.368C56.3685 22.872 56.2165 22.464 55.9125 22.144C55.6085 21.824 55.2245 21.576 54.7605 21.4C54.3125 21.208 53.6885 21 52.8885 20.776C51.8005 20.456 50.9125 20.144 50.2245 19.84C49.5525 19.52 48.9685 19.048 48.4725 18.424C47.9925 17.784 47.7525 16.936 47.7525 15.88C47.7525 14.888 48.0005 14.024 48.4965 13.288C48.9925 12.552 49.6885 11.992 50.5845 11.608C51.4805 11.208 52.5045 11.008 53.6565 11.008C55.3845 11.008 56.7845 11.432 57.8565 12.28C58.9445 13.112 59.5445 14.28 59.6565 15.784H55.9605C55.9285 15.208 55.6805 14.736 55.2165 14.368C54.7685 13.984 54.1685 13.792 53.4165 13.792C52.7605 13.792 52.2325 13.96 51.8325 14.296C51.4485 14.632 51.2565 15.12 51.2565 15.76C51.2565 16.208 51.4005 16.584 51.6885 16.888C51.9925 17.176 52.3605 17.416 52.7925 17.608C53.2405 17.784 53.8645 17.992 54.6645 18.232C55.7525 18.552 56.6405 18.872 57.3285 19.192C58.0165 19.512 58.6085 19.992 59.1045 20.632C59.6005 21.272 59.8485 22.112 59.8485 23.152C59.8485 24.048 59.6165 24.88 59.1525 25.648C58.6885 26.416 58.0085 27.032 57.1125 27.496C56.2165 27.944 55.1525 28.168 53.9205 28.168ZM61.9975 21.328C61.9975 20 62.2695 18.824 62.8135 17.8C63.3735 16.76 64.1255 15.952 65.0695 15.376C66.0135 14.8 67.0535 14.512 68.1895 14.512C69.1335 14.512 69.9655 14.696 70.6855 15.064C71.4215 15.416 72.0135 15.872 72.4615 16.432V14.704H75.8455V34.336H72.4615V26.176C72.0135 26.752 71.4135 27.232 70.6615 27.616C69.9095 28 69.0615 28.192 68.1175 28.192C66.9975 28.192 65.9655 27.904 65.0215 27.328C64.0935 26.736 63.3575 25.92 62.8135 24.88C62.2695 23.84 61.9975 22.656 61.9975 21.328ZM72.4615 21.352C72.4615 20.536 72.2935 19.832 71.9575 19.24C71.6215 18.648 71.1815 18.2 70.6375 17.896C70.1095 17.592 69.5415 17.44 68.9335 17.44C68.3415 17.44 67.7735 17.592 67.2295 17.896C66.7015 18.2 66.2695 18.648 65.9335 19.24C65.5975 19.816 65.4295 20.512 65.4295 21.328C65.4295 22.144 65.5975 22.856 65.9335 23.464C66.2695 24.056 66.7015 24.504 67.2295 24.808C67.7735 25.112 68.3415 25.264 68.9335 25.264C69.5415 25.264 70.1095 25.112 70.6375 24.808C71.1815 24.504 71.6215 24.056 71.9575 23.464C72.2935 22.872 72.4615 22.168 72.4615 21.352ZM91.7791 14.704V28H88.3951V26.32C87.9631 26.896 87.3951 27.352 86.6911 27.688C86.0031 28.008 85.2511 28.168 84.4351 28.168C83.3951 28.168 82.4751 27.952 81.6751 27.52C80.8751 27.072 80.2431 26.424 79.7791 25.576C79.3311 24.712 79.1071 23.688 79.1071 22.504V14.704H82.4671V22.024C82.4671 23.08 82.7311 23.896 83.2591 24.472C83.7871 25.032 84.5071 25.312 85.4191 25.312C86.3471 25.312 87.0751 25.032 87.6031 24.472C88.1311 23.896 88.3951 23.08 88.3951 22.024V14.704H91.7791ZM94.3303 21.304C94.3303 19.96 94.5943 18.768 95.1223 17.728C95.6663 16.688 96.3943 15.888 97.3063 15.328C98.2343 14.768 99.2663 14.488 100.402 14.488C101.394 14.488 102.258 14.688 102.994 15.088C103.746 15.488 104.346 15.992 104.794 16.6V14.704H108.178V28H104.794V26.056C104.362 26.68 103.762 27.2 102.994 27.616C102.242 28.016 101.37 28.216 100.378 28.216C99.2583 28.216 98.2343 27.928 97.3063 27.352C96.3943 26.776 95.6663 25.968 95.1223 24.928C94.5943 23.872 94.3303 22.664 94.3303 21.304ZM104.794 21.352C104.794 20.536 104.634 19.84 104.314 19.264C103.994 18.672 103.562 18.224 103.018 17.92C102.474 17.6 101.89 17.44 101.266 17.44C100.642 17.44 100.066 17.592 99.5383 17.896C99.0103 18.2 98.5783 18.648 98.2423 19.24C97.9223 19.816 97.7623 20.504 97.7623 21.304C97.7623 22.104 97.9223 22.808 98.2423 23.416C98.5783 24.008 99.0103 24.464 99.5383 24.784C100.082 25.104 100.658 25.264 101.266 25.264C101.89 25.264 102.474 25.112 103.018 24.808C103.562 24.488 103.994 24.04 104.314 23.464C104.634 22.872 104.794 22.168 104.794 21.352ZM114.92 16.768C115.352 16.064 115.912 15.512 116.6 15.112C117.304 14.712 118.104 14.512 119 14.512V18.04H118.112C117.056 18.04 116.256 18.288 115.712 18.784C115.184 19.28 114.92 20.144 114.92 21.376V28H111.56V14.704H114.92V16.768ZM133.723 21.064C133.723 21.544 133.691 21.976 133.627 22.36H123.907C123.987 23.32 124.323 24.072 124.915 24.616C125.507 25.16 126.235 25.432 127.099 25.432C128.347 25.432 129.235 24.896 129.763 23.824H133.387C133.003 25.104 132.267 26.16 131.179 26.992C130.091 27.808 128.755 28.216 127.171 28.216C125.891 28.216 124.739 27.936 123.715 27.376C122.707 26.8 121.915 25.992 121.339 24.952C120.779 23.912 120.499 22.712 120.499 21.352C120.499 19.976 120.779 18.768 121.339 17.728C121.899 16.688 122.683 15.888 123.691 15.328C124.699 14.768 125.859 14.488 127.171 14.488C128.435 14.488 129.563 14.76 130.555 15.304C131.563 15.848 132.339 16.624 132.883 17.632C133.443 18.624 133.723 19.768 133.723 21.064ZM130.243 20.104C130.227 19.24 129.915 18.552 129.307 18.04C128.699 17.512 127.955 17.248 127.075 17.248C126.243 17.248 125.539 17.504 124.963 18.016C124.403 18.512 124.059 19.208 123.931 20.104H130.243Z" fill="#171725"/>
<g id="Group 1">
<rect id="Shape" x="2.376" y="5.376" width="28.512" height="28.512" rx="9.504" stroke="#0073FF" stroke-width="4.752"/>
<rect id="Shape_2" x="15.376" y="6.376" width="14.256" height="14.256" rx="7.128" stroke="#0073FF" stroke-width="4.752"/>
</g>
</g>
</g>
<defs>
<clipPath id="clip0">
<rect width="135" height="37" fill="white"/>
</clipPath>
</defs>
</svg>
